<svg xmlns="http://www.w3.org/2000/svg" xmlns:xlink="http://www.w3.org/1999/xlink" width="500" zoomAndPan="magnify" viewBox="0 0 375 374.999991" height="500" preserveAspectRatio="xMidYMid meet" version="1.0">
    <defs>
        <filter x="0%" y="0%" width="100%" height="100%" id="11bd642ee4">
            <feColorMatrix values="0 0 0 0 1 0 0 0 0 1 0 0 0 0 1 0 0 0 1 0" color-interpolation-filters="sRGB" />
        </filter>
        <mask id="3d2bb5a16d">
            <g filter="url(#11bd642ee4)">
                <rect x="-37.5" width="450" fill="#000000" y="-37.499999" height="449.999989" fill-opacity="0.4" />
            </g>
        </mask>
        <clipPath id="e1f6d5bb60">
            <path d="M 0.257812 0.28125 L 206.507812 0.28125 L 206.507812 206.53125 L 0.257812 206.53125 Z M 0.257812 0.28125 " clip-rule="nonzero" />
        </clipPath>
        <clipPath id="1e58f24005">
            <rect x="0" width="207" y="0" height="207" />
        </clipPath>
        <mask id="bea419b193">
            <g filter="url(#11bd642ee4)">
                <rect x="-37.5" width="450" fill="#000000" y="-37.499999" height="449.999989" fill-opacity="0.8471" />
            </g>
        </mask>
        <clipPath id="8d721f0adf">
            <path d="M 0.441406 0.417969 L 206.691406 0.417969 L 206.691406 206.667969 L 0.441406 206.667969 Z M 0.441406 0.417969 " clip-rule="nonzero" />
        </clipPath>
        <clipPath id="54520790ec">
            <rect x="0" width="207" y="0" height="207" />
        </clipPath>
        <clipPath id="a9a586ed78">
            <path d="M 158 130 L 200 130 L 200 227.515625 L 158 227.515625 Z M 158 130 " clip-rule="nonzero" />
        </clipPath>
    </defs>
    <g mask="url(#3d2bb5a16d)">
        <g transform="matrix(1, 0, 0, 1, 93, 93)">
            <g clip-path="url(#1e58f24005)">
                <g clip-path="url(#e1f6d5bb60)">
                    <path fill="#000000" d="M 17.503906 0.28125 L 189.261719 0.28125 C 198.785156 0.28125 206.507812 8.003906 206.507812 17.527344 L 206.507812 189.285156 C 206.507812 198.808594 198.785156 206.53125 189.261719 206.53125 L 17.503906 206.53125 C 7.980469 206.53125 0.257812 198.808594 0.257812 189.285156 L 0.257812 17.527344 C 0.257812 8.003906 7.980469 0.28125 17.503906 0.28125 " fill-opacity="1" fill-rule="nonzero" />
                </g>
            </g>
        </g>
    </g>
    <g mask="url(#bea419b193)">
        <g transform="matrix(1, 0, 0, 1, 75, 75)">
            <g clip-path="url(#54520790ec)">
                <g clip-path="url(#8d721f0adf)">
                    <path fill="#000000" d="M 17.6875 0.417969 L 189.445312 0.417969 C 198.972656 0.417969 206.691406 8.140625 206.691406 17.664062 L 206.691406 189.421875 C 206.691406 198.949219 198.972656 206.667969 189.445312 206.667969 L 17.6875 206.667969 C 8.164062 206.667969 0.441406 198.949219 0.441406 189.421875 L 0.441406 17.664062 C 0.441406 8.140625 8.164062 0.417969 17.6875 0.417969 " fill-opacity="1" fill-rule="nonzero" />
                </g>
            </g>
        </g>
    </g>
    <path fill="#f4f6fc" d="M 143.902344 213.675781 C 141.820312 213.675781 140.429688 212.984375 139.039062 211.601562 L 111.234375 183.925781 C 108.457031 181.15625 108.457031 177.003906 111.234375 174.238281 L 139.039062 146.5625 C 141.820312 143.792969 145.988281 143.792969 148.769531 146.5625 C 151.550781 149.328125 151.550781 153.480469 148.769531 156.25 L 125.832031 179.082031 L 148.769531 201.914062 C 151.550781 204.683594 151.550781 208.832031 148.769531 211.601562 C 147.378906 212.984375 145.988281 213.675781 143.902344 213.675781 Z M 143.902344 213.675781 " fill-opacity="1" fill-rule="nonzero" />
    <path fill="#f4f6fc" d="M 213.410156 213.675781 C 211.324219 213.675781 209.9375 212.984375 208.546875 211.601562 C 205.765625 208.832031 205.765625 204.683594 208.546875 201.914062 L 231.484375 179.082031 L 208.546875 156.25 C 205.765625 153.480469 205.765625 149.328125 208.546875 146.5625 C 211.324219 143.792969 215.496094 143.792969 218.277344 146.5625 L 246.078125 174.238281 C 248.859375 177.003906 248.859375 181.15625 246.078125 183.925781 L 218.277344 211.601562 C 216.886719 212.984375 215.496094 213.675781 213.410156 213.675781 Z M 213.410156 213.675781 " fill-opacity="1" fill-rule="nonzero" />
    <g clip-path="url(#a9a586ed78)">
        <path fill="#f4f6fc" d="M 164.757812 227.515625 C 164.0625 227.515625 163.367188 227.515625 162.671875 226.824219 C 159.195312 225.4375 157.109375 221.980469 158.5 217.828125 L 186.304688 134.800781 C 187.695312 131.339844 191.167969 129.265625 195.339844 130.648438 C 198.816406 132.03125 200.898438 135.492188 199.507812 139.644531 L 171.707031 222.671875 C 170.316406 225.4375 167.535156 227.515625 164.757812 227.515625 Z M 164.757812 227.515625 " fill-opacity="1" fill-rule="nonzero" />
    </g>
</svg>